<svg width="17" height="17" viewBox="0 0 17 17" fill="none" xmlns="http://www.w3.org/2000/svg">
<path fill-rule="evenodd" clip-rule="evenodd" d="M8.82811 16.0928C13.2464 16.0928 16.8281 12.5111 16.8281 8.09277C16.8281 3.6745 13.2464 0.0927734 8.82811 0.0927734C4.40984 0.0927734 0.828125 3.6745 0.828125 8.09277C0.828125 12.5111 4.40984 16.0928 8.82811 16.0928ZM3.73358 6.12276C3.19474 6.66161 3.79631 8.13559 4.6174 8.95669L9.28168 13.621C9.48981 13.8291 9.82623 13.8291 10.0344 13.621L11.2318 12.4235C11.4399 12.2154 11.4399 11.8761 11.2318 11.668L6.56751 7.00373C5.74641 6.18263 4.27243 5.58107 3.73358 6.11991V6.12276ZM7.35699 6.21972C6.53589 5.39863 5.93433 3.92464 6.47317 3.3858V3.38294C7.01202 2.8441 8.486 3.44567 9.30709 4.26677L13.9714 8.93106C14.1795 9.13918 14.1795 9.47846 13.9714 9.68658L12.7739 10.884C12.5658 11.0921 12.2294 11.0921 12.0213 10.884L7.35699 6.21972Z" fill="#FFDA3E"/>
</svg>
