<svg width="16" height="17" viewBox="0 0 16 17" fill="none" xmlns="http://www.w3.org/2000/svg">
<path fill-rule="evenodd" clip-rule="evenodd" d="M16 8.5C16 12.9183 12.4183 16.5 7.99998 16.5C3.58171 16.5 0 12.9183 0 8.5C0 4.08172 3.58171 0.5 7.99998 0.5C12.4183 0.5 16 4.08172 16 8.5ZM5.15744 7.99532C4.33635 7.17423 3.73478 5.70024 4.27362 5.1614H4.27647C4.81532 4.62255 6.2893 5.22412 7.11039 6.04522L11.7718 10.7067C11.9799 10.9148 11.9799 11.2541 11.7718 11.4622L10.5744 12.6596C10.3663 12.8677 10.0298 12.8677 9.82172 12.6596L5.15744 7.99532Z" fill="#006AD3"/>
</svg>
