<svg width="16" height="17" viewBox="0 0 16 17" fill="none" xmlns="http://www.w3.org/2000/svg">
<path fill-rule="evenodd" clip-rule="evenodd" d="M16 8.5C16 12.9183 12.4183 16.5 8 16.5C3.58172 16.5 0 12.9183 0 8.5C0 4.08172 3.58172 0.5 8 0.5C12.4183 0.5 16 4.08172 16 8.5ZM2.36643 10.7352C1.54533 9.91407 0.943762 8.44008 1.48261 7.90124V7.89839C2.02145 7.35954 3.49544 7.96111 4.31653 8.78221L8.98083 13.4465C9.18895 13.6546 9.18895 13.9939 8.98083 14.202L7.78339 15.3995C7.57527 15.6076 7.23885 15.6076 7.03072 15.3995L2.36643 10.7352ZM4.22239 5.16135C3.68355 5.70019 4.28512 7.17418 5.10622 7.99528L9.77051 12.6596C9.97863 12.8677 10.3151 12.8677 10.5232 12.6596L11.7206 11.4621C11.9287 11.254 11.9287 10.9147 11.7206 10.7066L7.05632 6.04232C6.23523 5.22122 4.76124 4.61965 4.22239 5.1585V5.16135ZM7.84602 5.25545C7.02492 4.43435 6.42335 2.96036 6.9622 2.42152V2.41867C7.50104 1.87982 8.97503 2.48139 9.79613 3.30249L14.4604 7.96678C14.6685 8.17491 14.6685 8.51418 14.4604 8.7223L13.263 9.91974C13.0549 10.1279 12.7184 10.1279 12.5103 9.91974L7.84602 5.25545Z" fill="#EB0F29"/>
</svg>
