<svg width="495" height="68" viewBox="0 0 495 68" fill="none" xmlns="http://www.w3.org/2000/svg">
<path d="M44.8048 0.783081V45.7892C44.8048 52.7459 42.8363 58.1144 38.9217 61.8947C35.0072 65.6527 29.7058 67.5317 23.0623 67.5317C16.4187 67.5317 10.5134 65.5632 6.30803 61.6039C2.10269 57.6446 0 52.0301 0 44.7602H16.0161C16.0161 47.5116 16.5753 49.6142 17.7161 51.0235C18.8345 52.4327 20.4675 53.1485 22.6149 53.1485C24.561 53.1485 26.0597 52.5222 27.1334 51.2695C28.2071 50.0169 28.744 48.205 28.744 45.8115V0.805455H44.8495L44.8048 0.783081Z" fill="black"/>
<path d="M97.0585 55.1841H72.3857L68.4264 66.8606H51.5826L75.4949 0.783081H94.1282L118.04 66.8606H100.995L97.0361 55.1841H97.0585ZM92.9202 42.747L84.7333 18.5439L76.6357 42.747H92.9202Z" fill="black"/>
<path d="M182.552 66.8606H166.446L139.514 26.1046V66.8606H123.409V0.783081H139.514L166.446 41.7404V0.783081H182.552V66.8606Z" fill="black"/>
<path d="M236.192 21.6754C235.007 19.4832 233.284 17.8056 231.07 16.6424C228.833 15.4792 226.216 14.8976 223.218 14.8976C218.007 14.8976 213.824 16.5977 210.692 20.0201C207.56 23.4425 205.994 28.0058 205.994 33.7098C205.994 39.7941 207.65 44.5587 210.938 47.9811C214.226 51.4036 218.767 53.1036 224.538 53.1036C228.498 53.1036 231.83 52.097 234.559 50.0838C237.288 48.0706 239.279 45.185 240.532 41.4271H220.109V29.5716H255.139V44.5363C253.953 48.5627 251.918 52.2983 249.077 55.7431C246.214 59.1879 242.59 61.984 238.206 64.1314C233.821 66.2565 228.855 67.3302 223.33 67.3302C216.799 67.3302 210.983 65.8986 205.86 63.0353C200.738 60.1721 196.756 56.2129 193.893 51.1351C191.03 46.0574 189.598 40.2415 189.598 33.7098C189.598 27.1781 191.03 21.3622 193.893 16.2398C196.756 11.1173 200.715 7.13565 205.793 4.27244C210.871 1.40923 216.687 0 223.218 0C231.137 0 237.803 1.92372 243.216 5.74879C248.652 9.57386 252.231 14.8753 253.998 21.653H236.215L236.192 21.6754Z" fill="black"/>
<path d="M303.612 0.783081V45.7892C303.612 52.7459 301.643 58.1144 297.729 61.8947C293.814 65.6527 288.513 67.5317 281.869 67.5317C275.226 67.5317 269.32 65.5632 265.115 61.6039C260.91 57.6446 258.807 52.0301 258.807 44.7602H274.801C274.801 47.5116 275.36 49.6142 276.501 51.0235C277.619 52.4327 279.252 53.1485 281.4 53.1485C283.346 53.1485 284.844 52.5222 285.918 51.2695C286.992 50.0169 287.529 48.205 287.529 45.8115V0.805455H303.634L303.612 0.783081Z" fill="black"/>
<path d="M330.812 13.6676V27.0442H352.376V39.4812H330.812V53.9762H355.194V66.883H314.707V0.805542H355.194V13.7123H330.812V13.6676Z" fill="black"/>
<path d="M495 66.8606H478.895L451.962 26.1046V66.8606H435.857V0.783081H451.962L478.895 41.7404V0.783081H495V66.8606Z" fill="black"/>
<path d="M394.877 0.223999C376.4 0.223999 361.413 15.2111 361.413 33.6878C361.413 52.1644 376.4 67.1515 394.877 67.1515C413.354 67.1515 428.341 52.1644 428.341 33.6878C428.341 15.2111 413.354 0.223999 394.877 0.223999ZM394.877 58.0027C381.456 58.0027 370.562 47.1091 370.562 33.6878C370.562 20.2665 381.456 9.37284 394.877 9.37284C408.298 9.37284 419.192 20.2665 419.192 33.6878C419.192 47.1091 408.298 58.0027 394.877 58.0027Z" fill="#EB0F29"/>
<path d="M394.877 25.1874C390.202 25.1874 386.399 28.9901 386.399 33.6652C386.399 38.3403 390.202 42.143 394.877 42.143C399.552 42.143 403.355 38.3403 403.355 33.6652C403.355 28.9901 399.552 25.1874 394.877 25.1874Z" fill="#EB0F29"/>
</svg>
