<svg width="45" height="46" viewBox="0 0 45 46" fill="none" xmlns="http://www.w3.org/2000/svg">
<path d="M22.5 0.988281C10.08 0.988281 0 11.0683 0 23.4883C0 35.9083 10.08 45.9883 22.5 45.9883C34.92 45.9883 45 35.9083 45 23.4883C45 11.0683 34.92 0.988281 22.5 0.988281ZM22.5 7.73828C26.235 7.73828 29.25 10.7533 29.25 14.4883C29.25 18.2233 26.235 21.2383 22.5 21.2383C18.765 21.2383 15.75 18.2233 15.75 14.4883C15.75 10.7533 18.765 7.73828 22.5 7.73828ZM22.5 39.6883C16.875 39.6883 11.9025 36.8083 9 32.4433C11.0675 27.9658 18 25.5133 22.5 25.5133C26.9775 25.5133 33.9325 27.9658 36 32.4433C33.0975 36.8083 28.125 39.6883 22.5 39.6883Z" fill="#A9C9FA"/>
</svg>