<svg width="84" height="84" viewBox="0 0 84 84" fill="none" xmlns="http://www.w3.org/2000/svg">
<circle cx="42" cy="42" r="41.5" fill="none"/>
<path d="M42 0.5C19.08 0.5 0.5 19.08 0.5 42C0.5 64.92 19.08 83.5 42 83.5C64.92 83.5 83.5 64.92 83.5 42C83.5 19.08 64.92 0.5 42 0.5ZM42 72.14C25.35 72.14 11.86 58.65 11.86 42C11.86 25.35 25.35 11.86 42 11.86C58.65 11.86 72.14 25.35 72.14 42C72.14 58.65 58.65 72.14 42 72.14Z" fill="#EB0F29"/>
<path d="M42 31.48C36.19 31.48 31.48 36.19 31.48 42C31.48 47.81 36.19 52.52 42 52.52C47.81 52.52 52.52 47.81 52.52 42C52.52 36.19 47.81 31.48 42 31.48Z" fill="#EB0F29"/>
</svg>
